<?xml version="1.0" encoding="utf-8"?>
<!-- Generator: Adobe Illustrator 19.2.1, SVG Export Plug-In . SVG Version: 6.00 Build 0)  -->
<svg version="1.1" id="Layer_1" xmlns="http://www.w3.org/2000/svg" xmlns:xlink="http://www.w3.org/1999/xlink" x="0px" y="0px"
	 viewBox="0 0 2071 1915" style="enable-background:new 0 0 2071 1915;" xml:space="preserve">
<style type="text/css">
	.st0{fill:#F4E8A1;}
	.st1{fill:#FBD208;}
</style>
<g>
	<path class="st0" d="M999,1878.2c-21.1-36.2-51.7-88.6-121-207.2c-44.6-76.4-80.1-137.2-125-214c-19.4-33.3-47.6-81.4-62.5-107
		c-14.9-25.6-43.1-73.7-62.5-107c-19.4-33.3-49.1-84.1-66-113c-16.9-28.9-45-77-62.5-107s-46.4-79.4-64.2-109.9
		c-17.8-30.5-32.2-56-31.9-56.8c0.4-0.8,1.4-1.1,2.8-0.8c8.3,2,62.2,12.4,62.5,12.1c0.2-0.2-27.3-55.8-61.1-123.5
		C346.3,621.7,346,621,348.3,619.6c1.2-0.7,4.4-2.2,7-3.1c4.1-1.6,5-1.6,6.1-0.4c0.7,0.8,26.3,44.8,56.9,97.9
		c30.5,53.1,71.4,124,90.7,157.5c34.3,59.4,73.4,127.2,145.5,252c19.4,33.6,44.5,77.1,55.9,96.7c11.3,19.7,29.9,51.9,41.2,71.5
		c11.4,19.7,29.8,51.6,40.9,70.8c11.1,19.3,32.8,56.8,48.2,83.5c15.4,26.7,37.2,64.5,48.5,84s30.8,53.3,43.3,75
		c54.3,94,63.3,109.6,74.8,129.7c6.7,11.7,12.4,21.2,12.7,21.2s37.7-63.7,83.1-141.7c329.7-565.8,577.5-990,579.1-991.4
		c1.6-1.4,3.8-1.8,9.9-1.8c4.3,0,8.1,0.5,8.4,1c0.4,0.6-7.3,16.2-17.1,34.8c-9.7,18.5-29.4,56-43.7,83.2
		c-54.3,103.3-67,127.5-67.8,129.1c-0.6,1.2,6.4-0.7,24.9-6.8c40-13,41.2-13.4,41.8-11.9c0.3,0.7-17.5,32.3-39.4,70.2
		c-21.9,37.9-66.6,115-99.2,171.4s-74,127.9-92,159s-56.9,98.4-86.5,149.5c-29.6,51.2-74.5,128.8-99.8,172.5
		c-25.3,43.7-63.3,109.4-84.5,146c-108,186.6-113.5,196-115.1,196C1021,1915,1013.4,1902.8,999,1878.2z"/>
	<path class="st0" d="M1323.2,251.9c-2.1-5.6-8.5-42-7.6-42.9c1-1,737.2-205.6,748.7-208.1c3.1-0.7,6-0.9,6.3-0.6
		c0.4,0.4,0.1,2.1-0.7,3.9c-2,5-58,112.1-59.3,113.5c-1.2,1.3-38.6,4.9-41.1,3.9c-1.2-0.4,1.3-6.2,12.5-28.6
		c7.7-15.4,14-28.1,14-28.3c0-0.2-19.7,5.2-43.7,12c-24.1,6.8-66.7,18.9-94.8,26.8c-28,7.9-93.3,26.4-145,41
		c-51.7,14.6-108.2,30.6-125.5,35.5c-38.6,10.9-105.3,29.8-192,54.3c-36,10.2-66.7,18.9-68.2,19.2
		C1324.5,254.1,1323.9,253.8,1323.2,251.9z"/>
	<path class="st0" d="M667.5,229.5c-8.1-2.3-252.3-68.3-488-132c-69.8-18.9-127.2-34.2-127.4-34c-0.2,0.3,6,17.4,13.9,38.1
		c8.7,23,13.8,38,13.2,38.6c-1.2,1.2-35-4.5-36.6-6.3c-0.7-0.8-5.2-13.1-10.1-27.4C27.7,92.2,18.9,66.3,13.1,49
		C2.3,17.2-0.9,6.5,0.3,5.4C0.7,5,15.2,8.9,32.7,14C84.2,29,118.6,39,168,53.4c93.2,27.1,199.1,57.9,225.5,65.6
		c28,8.2,160.3,46.7,220.5,64.2c62,18,74.3,21.7,75.1,22.5c0.7,0.7-5.9,18.3-9,24.1C678.7,232.4,677.9,232.4,667.5,229.5z"/>
</g>
<g>
	<path class="st1" d="M1028,1370.4c-0.6-1.5-7.1-23.2-14.6-48.3c-22.4-75.7-24.4-82.3-26.9-90.6c-1.3-4.4-6.2-20.8-10.8-36.5
		c-4.7-15.7-13.2-44.5-19-64s-10.9-36.7-11.3-38.2c-0.3-1.6-0.9-2.8-1.3-2.8c-0.3,0-2.6,1.2-5.1,2.6c-3.8,2.2-60,33.8-133.5,75.2
		c-9.3,5.2-17.6,9.9-18.2,10.5c-4.8,3.6,1.3-10.9,28.5-68.3c1.7-3.6,10.7-22.7,20-42.6l16.8-36l-7.6,1.2
		c-54.9,9.2-143.4,22.4-144.2,21.6c-1.1-1.1,0.8-2.5,56.7-38.5c17.1-11,41.6-26.8,54.5-35.2c12.9-8.3,41.5-26.8,63.5-41
		s47-30.3,55.5-35.8c8.5-5.6,16.2-10.1,17-10.1s19,10,40.4,22.2l38.8,22.2l41.4-22.6l41.3-22.5l11.8,7.1
		c6.5,3.9,18.8,11.4,27.3,16.6c8.5,5.2,17.8,10.9,20.5,12.5c2.8,1.6,12,7.3,20.5,12.5c8.5,5.2,17.8,10.9,20.5,12.5
		c6.2,3.7,17.8,10.8,44.7,27.2c11.5,7,30.1,18.4,41.5,25.4c11.5,7,30,18.3,41.3,25.1c11.3,6.8,21.8,13.3,23.3,14.4
		c5.9,4.2,5.6,4.2-55.3-1.7c-8.5-0.8-32.8-3-54-5c-21.2-1.9-40.2-3.7-42.2-4l-3.7-0.5l2.4,5.8c6.9,17.2,23.9,58.5,26,63.2
		c1.3,3,5.7,13.8,9.9,24c4.1,10.2,10.4,25.7,14,34.4c4.1,9.9,6.3,16.3,5.7,16.9c-0.6,0.6-4.3-1.1-9.8-4.6
		c-4.8-3-17.3-10.7-27.8-17.2c-10.4-6.4-22.8-14.1-27.5-17c-4.7-2.9-16.1-10-25.5-15.7c-9.3-5.8-27.3-16.9-39.9-24.7
		c-12.6-7.8-23.1-13.9-23.4-13.7c-0.2,0.3-1.5,4.4-2.8,9.3c-6.4,22.8-10.5,37.9-13.8,49.8c-3.6,13.2-22.3,81.2-27.6,100.5
		c-4,14.5-24.3,88.4-29.2,106c-2.2,8-4.3,15.8-4.7,17.4C1031.2,1373.3,1029.3,1373.8,1028,1370.4z"/>
	<path class="st1" d="M1017.5,898.9c-4.9-2.8-11-6.2-13.5-7.6c-160.2-89.4-334-187-335.3-188.3c-2-1.9-4.7-0.2,59-38.4
		c8.9-5.4,9.9-6.2,8-6.9c-4.9-1.9-136.9-50.6-148.2-54.7c-2.7-1-39.9-14.7-82.5-30.5c-42.6-15.7-88.7-32.7-102.5-37.7
		c-25.4-9.2-28.2-10.5-26.8-11.9c0.7-0.7,124.4-5.6,188.3-7.5c11.3-0.3,21.1-0.8,21.8-1c1.4-0.4-2.9-4.1-14.8-12.6
		c-3.6-2.6-16.2-11.7-28-20.2c-11.8-8.6-31.8-22.9-44.3-31.8c-12.5-9-26.7-19.1-31.5-22.5c-4.8-3.5-15.9-11.4-24.7-17.6
		c-8.8-6.2-28.6-20.2-44-31.2c-31.6-22.4-32.9-23.3-44.2-31.2c-14.6-10.2-54.7-38.5-58.8-41.5c-2.2-1.6-16.1-11.5-31-21.9
		c-14.8-10.5-33.1-23.3-40.5-28.5c-26.2-18.5-56.8-39.9-81.5-57.2c-33.9-23.8-35.8-25.3-34.8-26.3c0.5-0.5,3.3-0.1,6.9,1
		c3.2,1.1,21.4,7,40.4,13.1c37.4,12.1,53.6,17.3,84.5,27.3c24.6,8,62.3,20.2,147.5,47.7c36,11.6,80.6,26,99,32
		c52.3,16.9,97.9,31.7,142.5,46.1c22.6,7.2,41.5,13.4,42.2,13.6c0.7,0.3-0.2-4.6-2.4-13.2c-2.2-8.3-3.2-14-2.7-14.5
		c0.8-0.8,28.1,16,63.9,39.4c4.4,2.9,28.2,18.3,53,34.2c24.7,15.9,49.9,32.1,56,36.1c6,3.9,14.7,9.5,19.3,12.3
		c4.5,2.8,8.2,5.3,8.2,5.5c0,0.4-8.5,9.8-44.4,49.4c-7.2,8-15.6,17.2-18.6,20.6c-3,3.4-11.6,12.8-19,21
		c-27.4,30.2-45.9,50.9-45.7,51.1c0.1,0.1,39.6-7.7,87.6-17.3c76.7-15.3,87.6-17.3,88.6-16c0.6,0.9,5.3,16.8,10.5,35.4
		c5.1,18.6,9.5,34.2,9.7,34.6c0.3,0.4,2.9-3.2,5.8-8c2.9-4.8,9.8-16.2,15.3-25.3c5.5-9.1,12.9-21.2,16.4-27s6.6-11,7-11.6
		c0.4-0.6-8.3,2.5-19.3,6.9c-17,6.8-20.2,7.8-21.3,6.6c-0.7-0.8-4-9.2-7.2-18.6c-3.2-9.5-6.4-17.3-6.9-17.3
		c-1.2,0-70.4,10.5-96.8,14.6c-9.9,1.6-17.2,2.3-17.7,1.8s19.6-22.4,47.6-51.8l48.3-50.9l-5.3-4.1c-2.9-2.3-15.1-11.6-27.2-20.8
		c-12-9.3-41.8-32-66.1-50.5c-24.2-18.6-50-38.3-57.2-43.7c-9-6.9-12.8-10.3-12.1-11s22.9,4.4,70.3,16.4c38,9.5,69.7,17.5,70.4,17.7
		c1.1,0.4-0.5-6.1-8.7-36.2c-2.3-8.3-3.5-14.4-3-14.9c0.8-0.8,3.2,0,17.5,6.5c19.9,8.9,47.9,20.8,48.3,20.4c0.3-0.3-3-12.1-7.3-26.2
		c-4.3-14.2-8.6-28.5-9.6-31.8c-0.9-3.3-3.3-11.4-5.4-18c-2-6.6-5.8-19.2-8.5-28s-14.6-48.2-26.5-87.5c-12-39.3-21.8-71.9-21.9-72.4
		c0-0.5,0.4-1,1.1-1.3c1.4-0.5,0.5-1.7,45.8,60.8c12.7,17.4,34.9,48,49.5,68c14.6,19.9,27.2,37.3,28,38.5
		c1.2,1.7,40.4,55.8,41.6,57.2c0.1,0.2,3.3-4.1,7.2-9.5c29.3-41.5,52.6-74.4,58.9-83.3c41.3-58.3,79.5-113,98.1-140.5
		c10.7-15.7,13.9-19.4,13.6-15.5c-0.1,0.8-9.2,29.9-20.3,64.5c-11.2,34.7-22.5,70-25.2,78.5c-2.8,8.5-7.7,23.8-10.9,34
		c-3.3,10.2-12.4,38.8-20.4,63.5c-7.9,24.8-14.3,45.1-14.2,45.3c0.2,0.1,14.2-5.2,31.2-11.8s31.4-11.8,32.1-11.6
		c0.7,0.3-0.9,8.4-5.3,25.8c-3.5,13.9-6.4,25.8-6.4,26.4c0,1.2,6.6-0.4,74.5-17.1c64.6-15.9,62.6-15.5,63.2-13.9
		c0.2,0.6-36.1,28.5-80.7,61.9l-81.1,60.8l10.9,11.1c45,45.8,85,86.9,88.4,90.8c3.5,4.2,3.8,4.9,2.2,5.5c-2.7,1-38.7-5.3-107.7-19
		c-16.7-3.4-16.7-3.4-17.2-1.3c-0.3,1.2-2.3,13.1-4.5,26.5c-2.2,13.5-4.3,24.8-4.8,25.3s-9-5.2-19-12.7c-10-7.4-18.2-13.2-18.2-12.9
		c0,0.9,46.2,74.6,46.5,74.2c0.1-0.2,4.6-16.7,10-36.8c5.4-20.1,10.1-36.9,10.5-37.3c0.4-0.5,41.8,8.4,92,19.8
		c50.2,11.3,91.4,20.4,91.6,20.2c0.3-0.2-113.1-118.1-139.9-145.4c-5.7-5.8-6-6.4-4.5-7.9c0.9-0.9,10.2-7.1,20.7-13.8
		c10.4-6.6,27-17.3,36.8-23.6c23.2-14.9,64.3-41.2,106.8-68.4c18.7-12,35.1-22.6,36.5-23.5c4.1-2.9,7-4.2,7.9-3.7
		c0.4,0.3-0.7,7.6-2.5,16.3c-1.8,8.7-3.3,16.4-3.4,17.2c0,1.7-4,2.8,42.5-12.4c21.5-6.9,58.4-19,82-26.7c23.7-7.6,61.7-20,84.5-27.4
		c62-20.2,73.5-24,121-39.4c56.4-18.3,116.1-37.8,163-53.1c20.6-6.7,38.2-12.2,39-12.3c2.4-0.2,1.7,2.3-1.2,4.2
		c-1.5,0.9-17.7,12.7-35.9,26.2c-18.3,13.5-34.3,25.2-35.5,26c-2.1,1.3-50.9,37.1-79.9,58.5c-6,4.5-16.2,11.9-22.5,16.5
		c-6.3,4.6-15.5,11.4-20.5,15c-4.9,3.7-20.9,15.4-35.5,26c-14.6,10.7-30.5,22.4-35.5,26c-4.9,3.7-20.9,15.4-35.5,26
		c-14.6,10.7-30.5,22.4-35.5,26c-4.9,3.7-28.6,21-52.5,38.5s-49.7,36.4-57.3,41.9l-13.7,10.1l35.2,0.6c160.5,2.9,175.7,3.4,176,5.4
		c0.1,0.6-5,3.2-11.3,5.8c-55.2,23.4-99.8,42.3-106.9,45.2c-3,1.3-19,8-35.5,15s-40.1,17-52.5,22.2s-32.6,13.8-45,19
		c-58,24.6-67.8,28.7-71.9,30.3l-4.4,1.7l9.2,5.9c34.8,22.3,46.5,30,46.8,31c0.4,1.1-354.3,204.4-356.3,204.4
		C1026.9,904,1022.5,901.7,1017.5,898.9z M1039.4,644.5l13.2-149l-12-16.5c-6.6-9.1-13-18-14.2-19.8l-2.3-3.3l-2.5,3.3
		c-14.1,17.9-27.6,37.4-27.6,39.7c0,1.4,1.1,13,2.5,25.6c1.3,12.7,3.1,29.8,4,38c3.2,30.7,6.6,62.5,8.5,80.5
		c1.1,10.2,3.1,29.5,4.5,43c1.5,13.5,3.9,36.7,5.5,51.5c1.6,14.9,3.7,34.9,4.7,44.5c1,9.6,1.9,16.2,2.1,14.5
		C1026,794.9,1032.1,726.5,1039.4,644.5z"/>
</g>
</svg>
