<?xml version="1.0" encoding="utf-8"?>
<!-- Generator: Adobe Illustrator 19.2.1, SVG Export Plug-In . SVG Version: 6.00 Build 0)  -->
<svg version="1.1" id="Layer_1" xmlns="http://www.w3.org/2000/svg" xmlns:xlink="http://www.w3.org/1999/xlink" x="0px" y="0px"
	 viewBox="0 0 1764 1738" style="enable-background:new 0 0 1764 1738;" xml:space="preserve">
<style type="text/css">
	.st0{fill:#F0A8A9;}
	.st1{fill:#F3150A;}
</style>
<g>
	<path class="st0" d="M481,1553.6c-8.7-3.3-54.6-26.9-88-45.4c-21.6-11.9-86.9-58.2-123.5-87.6c-38.3-30.6-91.2-85.6-117.3-121.9
		c-42.9-59.6-100.7-184.4-141.9-306.2C1.3,965.7,0,960.4,0,950.8l0.1-8.3l2.4,3c2.4,2.8,8.6,11.8,40.8,59
		c21.8,31.9,38.7,53.5,55.2,71c5.1,5.4,6.5,6.4,6,4.5c-0.3-1.4-2.8-11.2-5.5-21.8C87.7,1014,77,953.9,72.9,911
		c-0.7-6.9-1.3-23.9-1.3-37.8l-0.1-25.4l2.8-2.4c5.6-4.8,19.3-2.5,24.5,4.1c3.2,4,4,7.9,4.6,22.5c0.7,15.5,1.3,20.6,6.7,61.2
		c5.8,43.3,10.3,66.7,19.5,99.5c19.6,70.7,53.3,145.7,90.7,201.8c24.8,37.1,64.3,86.8,90.2,113.4c13.2,13.6,49.3,46.2,66.5,60
		c5.2,4.3,14,10.9,19.5,14.8c27.4,19.2,84.1,55.6,101.9,65.3c9.5,5.2,12,8.5,11.1,15c-1.1,9.2-11.2,48-13,50
		C494.4,1555.4,486.6,1555.6,481,1553.6z"/>
	<path class="st0" d="M1212.5,1551c-1.8-2-11.9-40.8-13-50c-0.9-6.5,1.6-9.8,11.1-15c17.8-9.7,74.5-46.1,101.9-65.3
		c5.5-3.9,14.3-10.5,19.5-14.8c17.2-13.8,53.3-46.4,66.5-60c25.9-26.6,65.4-76.3,90.2-113.4c37.4-56.1,71.1-131.1,90.7-201.8
		c9.2-32.8,13.7-56.2,19.5-99.5c5.4-40.6,6-45.7,6.7-61.2c0.6-14.6,1.4-18.5,4.6-22.5c5.2-6.6,18.9-8.9,24.5-4.1l2.8,2.4l-0.1,25.4
		c0,13.9-0.6,30.9-1.3,37.8c-4.1,42.9-14.8,103-26.1,147.2c-2.7,10.6-5.2,20.4-5.5,21.8c-0.5,1.9,0.9,0.9,6-4.5
		c17.3-18.3,33.7-39.6,57.9-75c20.7-30.5,40-58.3,42.9-61.9c3.6-4.4,4.8-2.7,3.1,4.5c-2.1,9-18.4,58-28.6,85.7
		c-42.2,115.6-90.3,216.1-129,269.9c-26.1,36.3-79,91.3-117.3,121.9c-36.6,29.4-101.9,75.7-123.5,87.6
		c-34.7,19.3-79.8,42.4-88.3,45.4C1221.8,1553.7,1214.7,1553.4,1212.5,1551z"/>
	<path class="st0" d="M1418.5,332.6c-1.7-0.7-8.6-7.3-15.5-14.6c-30-31.9-66.1-62-119.5-99.4c-21.9-15.5-47.4-28.6-116.5-60.3
		c-46.7-21.4-65.7-29-91.1-36.2C990.3,97.9,930.4,90,843.7,91.3c-46.5,0.7-71,2.9-115.2,10.3c-125.3,20.9-245,74.6-345.5,154.9
		c-21.2,16.9-33.9,28.2-57.8,51.3c-10.7,10.3-20.3,19.2-21.5,19.9c-6,3.3-12.9-0.2-18.9-9.6c-3.7-5.9-3.6-9.7,0.4-15.2
		c5-7,39-40.5,53.8-53.1c58.8-50,104-80.9,160.5-109.9C591,93,696.4,63.6,800.5,56c24.9-1.8,72.6-2.3,98.5-1.1
		c79.8,3.9,143.3,15.8,211.2,39.5c47.1,16.5,67.1,24.7,100.9,41.6c62.6,31.4,119.8,70,170.6,115.3c20.5,18.3,52.1,49.5,55.5,54.6
		c4.6,7.3,3.8,13.8-2.8,21.1C1428.3,333.7,1424.3,335.1,1418.5,332.6z"/>
</g>
<g>
	<path class="st1" d="M785.1,1732.5c-8.7-2.5-18.1-8.3-31.8-19.8c-19.3-16.3-50.7-39.7-60.7-45.3c-6.8-3.7-10.1-6.4-14-11
		c-6-7.3-10.2-9.9-17.2-10.9c-6.6-0.8-12.2-4.1-15.7-9.2c-2.6-3.6-3.1-5.5-4.3-16.9c-1.6-15.5-4.2-24.8-13.2-47.6
		c-3.8-9.5-7.9-20.4-9.1-24.3c-3.6-11.8-4.1-12.1-24.7-14.1c-16.8-1.6-19.9-2.6-23.8-7.7c-2.8-3.7-6.6-12-6.6-14.6
		c0-2.9,3.1-4.8,8.8-5.6c7.5-1,8.2-2.9,5.3-13.7c-2.3-9.1-2.7-16.8-1-18.5c0.9-0.9,2-0.6,4.3,1.2c1.8,1.3,5.8,3.6,9,5.1
		c5,2.3,6.8,2.6,12.5,2.2c8.4-0.6,12.8-2.9,22.3-11.5c6.2-5.7,9.6-7.8,19.9-12.4l12.4-5.6l0.8-7.6c1.7-17.8,10-29.8,35.1-51.5
		c2.7-2.3,4.7-4.4,4.4-4.7c-0.2-0.2-6.8-1.6-14.7-2.9c-15.7-2.7-23.6-5.8-23.6-9.1c0-1.2,1.7-3,4.3-4.8l4.3-2.9l-2.6-4.3
		c-3-5.3-3.1-6.6-0.4-9.1c1.7-1.5,3.4-1.8,9.6-1.6c15,0.4,24.4-2.6,30.6-9.9c4.1-4.8,6.2-10.2,8.2-21.2c2.4-13,7.6-20.2,20.9-29.1
		c5.6-3.7,22.4-12.7,58.1-31.3c36.8-19.1,49.3-27.3,53.2-34.7c2.4-4.5,2-15.1-1.1-27.6c-1.4-5.8-2.6-12.5-2.6-15
		c0-6.5,3.5-12.8,9.4-17c12.6-9,14.6-12.8,10.8-21.3c-2.6-5.9-5.6-7.7-21.2-12.8c-6.9-2.3-12.9-4.3-13.3-4.6c-1.8-1.1,4-5.4,9.3-7
		c3-0.8,6-1.9,6.5-2.3c1.4-1.2,14.4-6,18.6-6.9c2.4-0.5,8-0.2,16.1,0.9c6.8,1,17.8,2.1,24.4,2.4c6.5,0.4,23.8,1.6,38.3,2.7
		c27.9,2.1,32.4,3.1,35.4,8c0.6,1.1,5,4.7,9.5,8.1c22.5,16.4,44.1,42,55.8,66.5c10.7,22.3,19.8,60,18.1,75.5
		c-2.1,20.7-18.5,38.4-68.2,74c-18.4,13.2-21.2,14.8-25.7,14.8c-3.4,0-11.1-3-12.1-4.7c-0.4-0.6,2.4-3.1,6.1-5.6
		c9.8-6.7,17.9-14.3,28-26.5c15.6-18.7,16.6-21,11.2-26.4c-2.8-2.7-3.6-3-7.5-2.6c-6.7,0.8-13.3,5.7-31.5,23.3
		c-12.8,12.4-18.2,16.9-24,20.1c-23.6,12.8-33.3,19-36.1,23c-3,4.4-4.8,10.6-4.9,16.5c0,10.5-6.5,20.1-15.6,23.4
		c-7.1,2.6-8.6,4.4-9.2,10.9c-0.4,5.5,1,16.2,3,22.5l1,3.3l9.2-0.7c13.6-1,14.3,0.8,6.6,17.5c-2.2,4.8-4,9.8-4,11.3
		c0,3,3.6,6.2,8,7.2c4,0.9,4.9,2.3,6.5,10.9c1.7,8.8,2.6,10.9,5.7,13c2.6,1.9,10.4,2.1,14.5,0.5c8.4-3.4,15.7-2.7,19.3,1.8
		c3.2,4.1,2.5,6.2-4.4,12.9c-11.2,11-23.4,15.4-42.2,15.4c-16.9,0-31-3.3-45.8-10.7c-14.7-7.3-28.7-19.9-33.9-30.3
		c-1.3-2.6-3.3-6.3-4.4-8.1c-1.2-1.9-2.8-6-3.7-9.1c-1.3-4.6-2.1-5.9-4.1-6.4c-5.7-1.4-13.3,3.5-17,10.9c-2.1,4.4-2.7,7.6-3.5,18.8
		c-0.5,7.3-1.9,19.7-2.9,27.5c-4,28.6-3.8,37.9,1.3,48.8c3.5,7.7,9.6,12.9,21.6,18.8c8.1,3.9,12.2,6.7,17.9,12
		c8.9,8.5,15.4,11.8,23.4,11.8c6.3,0,11.3-1.7,16.5-5.6c5.2-4,7.2-8,7.2-14.5c0-6.6-1.6-11.7-5.8-18.5c-2.1-3.3-2.8-5.2-2.1-6
		c1.4-1.7,17.4-2.7,23.9-1.4c11.8,2.3,18,8.7,25.9,26.7c5.5,12.6,7.2,14.1,14.4,12.3c4.2-1.1,4.7-1,13.9,3.8
		c5.2,2.8,11.6,5.4,14.2,5.7c9.6,1.5,17.9-4.6,26.6-19.5c2.4-4.1,6.5-10.8,9.2-14.8c7.5-11.5,6.5-15.1-6.1-23.5
		c-5.4-3.5-7.8-8.6-5.9-12.4c0.7-1.4,2.5-3.5,4-4.6l2.7-2l7.6,2.8c4.1,1.5,8.2,2.4,9.1,2.1c0.8-0.3,2.4-2.5,3.4-4.8
		c1-2.4,3.3-5.6,4.9-7.2c1.7-1.7,3.1-3.5,3.1-4.2c0-0.6,2.3-5.7,5-11.4c4.3-8.6,5.3-10,6.5-9c0.8,0.7,1.5,2.4,1.5,3.9
		s0.6,3.5,1.4,4.6c0.7,1.1,1.8,4.7,2.4,8c0.8,5.1,0.7,7.2-1,13.5c-1.8,6.4-2.2,12.1-2.8,40c-0.8,35-1.4,39.1-6.7,49.8
		c-3.3,6.6-13.8,16.6-21.8,20.9c-3.3,1.7-11.8,5.4-19,8.3c-7.1,2.8-16.8,7.3-21.5,10c-32.3,18.3-56.4,25.2-89,25.2
		c-25.1,0.1-54.5-5-70.2-12.1c-8.9-4.1-13.2-4.1-15.3-0.1c-3.2,6.1-1.3,11.7,7,21.3c5.8,6.8,10.2,8.7,20.4,9.1
		c5.9,0.2,7.6,0.6,8.7,2.1c3.4,4.7-0.2,10.7-9,15C799,1733.7,792,1734.4,785.1,1732.5z"/>
	<path class="st1" d="M785.8,1208.4c-0.4-0.3,1.8-5.6,4.7-11.7c7.6-15.8,9.7-24.3,9.2-36.5c-0.2-5.3-1-12.3-1.7-15.6
		c-1.4-5.8-1.4-5.8,1-7.8c2.2-1.7,3.4-1.9,8.9-1.4c3.5,0.4,7.6,1.3,9.1,2.1c4.1,2.1,9.7,9.1,13.3,16.5c2.9,6,3.2,7.3,3.2,16.5
		c0,9-0.3,10.4-2.7,14.6c-5.7,9.7-14.9,15.8-29.9,19.8c-4.1,1.1-8.8,2.5-10.3,3.1C787.5,1209.1,786.6,1209.2,785.8,1208.4z"/>
	<path class="st1" d="M864.6,1099.9c-14-2-31.6-8.7-42-15.8c-2.5-1.8-8.3-5-12.8-7.1c-24.5-11.6-42.7-9.3-66.8,8.4
		c-7.7,5.7-15.2,8-23.4,7.4c-8.5-0.7-15.1-4.3-22.3-12.2c-3.3-3.6-7.3-7.2-8.9-8.1c-3.4-1.7-13.7-2-20.3-0.4
		c-2.4,0.5-5.7,0.7-7.3,0.3c-3.9-0.8-6.8-5.7-6.8-11.1c0-4.2-0.1-4.3-3.3-4.3c-5.6,0-12.3,2.9-19.9,8.6
		c-19.8,14.6-34.5,17.7-49.4,10.4c-8-3.9-13.7-9.1-22.6-20.3c-14.1-18-23.1-24.2-39.3-27.2c-18.6-3.5-24.4-10-23-26.1
		c1.2-14.1-2.1-17.4-18-18.9c-11.3-1.1-17.5-4.7-17.5-10.3c0-7.2,13.2-22.5,23.9-27.5c5.9-2.8,7.5-3.2,15.1-3.1
		c6.9,0.1,10,0.7,16.8,3.3c9.8,3.7,14.9,3.9,18.6,1c6.2-4.9,7.3-11.6,2.4-15c-1.8-1.2-6-4.8-9.3-7.9c-12.3-11.6-18.2-13.7-31.3-11.4
		c-9.3,1.6-28.1,1.8-38.9,0.3c-9.1-1.2-17.4-4.7-22.1-9.2c-1.9-1.8-5.4-7.3-7.8-12.4c-3.3-6.8-6-10.8-10.6-15.5
		c-5.9-5.9-26-21.2-42-32.1c-14.3-9.5-29.9-11.7-46-6.3l-8.8,3l-2.5-2.4c-4.5-4.3-2.8-7.3,6-10.8c2.8-1.1,11.1-4.9,18.5-8.5
		c20.8-9.9,25.5-11.2,38.5-11.2c10.2,0.1,11.7,0.4,20.5,3.7c12.2,4.6,15.2,5.2,19.6,3.8c5.1-1.7,8.6-9.4,9.2-20.2
		c0.8-14.3-3.7-20.6-18.9-26.6c-25.5-9.9-54.8-12.5-86.4-7.7c-19.7,3-31.4,7.4-41.8,15.9c-8.3,6.7-11.1,7.9-17.9,7.4
		c-4.8-0.4-8.6-1.8-21.1-8c-8.4-4.1-16.7-7.8-18.6-8.2c-4.5-0.8-10.3,0.8-14.1,4c-3,2.5-3.1,2.6-5,0.9c-2.7-2.5-4-7.7-4-16.5
		c0-4.1-0.6-8.6-1.3-9.9c-2-4-6.8-6.1-16.2-7.2C168.4,737,163,731.2,163,715c0-7.6-0.2-8.3-2.7-10.6c-1.6-1.3-5.4-4.7-8.6-7.6
		c-3.1-2.8-7.6-8.1-9.9-11.7c-2.3-3.6-6.3-9.2-9-12.4c-5.3-6.5-5.7-8.2-2.7-12.1c2.6-3.3,6.5-3.4,11-0.1c8.4,6.2,17,9.4,35.4,13
		c17.5,3.5,18.3,3.6,27.8,2.5c19.2-2.2,25.5-6.9,24.5-18.2c-0.6-5.6-3-9.4-7.7-12.2c-7.9-4.6-48.9-7.4-80.4-5.4
		c-11.6,0.7-30.9,1.3-42.7,1.2c-18.9,0-22.5-0.3-29.5-2.2c-13.1-3.6-33-14.1-30.8-16.3c0.5-0.5,5.3-1.3,10.8-1.9
		c20.4-2.2,26.5-5,26.5-12.3c0-3.4-0.7-4.6-5.7-9.6c-3.2-3.1-11.4-9.9-18.3-15c-12.1-9-29-24.5-29-26.6c0-0.6-0.8-1.5-1.8-2.2
		c-1.5-0.9-2-2.9-2.5-8.9c-1-11.4,1.2-12.8,11.9-7.4c7,3.6,19.5,7,25.6,7c4.7,0,10-2.7,11.8-6c1.4-2.6,17.8-10.9,30.1-15.1
		c11.1-3.9,14.9-7,14.9-12.2c0-7.1-5-9.6-19.2-9.7c-8.5,0-16.7-1.5-21.3-3.7c-7.5-3.8-10.8-9.4-12.4-20.6c-0.6-4.3-1.7-9.2-2.5-11
		c-2-4.8-7.2-10.4-12.5-13.4C29.4,445.8,25,440.4,25,430.7c0-7.2,2.9-13.6,10.7-23.3C43.3,398,47,392,47,389.3
		c0-3.1-4.2-7.5-12-12.6c-6.3-4.1-8.2-6.9-6.2-8.9c0.5-0.5,5.7-1.4,11.5-1.8c5.9-0.5,11.5-1.4,12.7-2c3.2-1.7,6-7,6-11.3
		c0-6.4-2.1-8.9-11.7-14c-4.8-2.6-13.3-7.6-18.8-11.1l-10-6.3l-2.8-8.4C8.1,290,7.8,287.5,7.6,253c-0.2-31.3-0.9-39.2-4.3-52.5
		c-0.9-3.3-1.6-10.5-1.6-16c-0.1-8.9,0.2-10.5,2.2-13.8c2.8-4.6,9-9,10.6-7.7c0.7,0.5,1.8,3.6,2.5,6.7c2,9.1,7.7,24.9,13,35.9
		c6.3,13.1,10.6,16.6,15.6,13c1.8-1.4,1.9-2.6,1.6-18.6c-0.2-12.2,0-17.5,0.9-18.6c2-2.4,5.9-1.6,10.9,2.2c4.4,3.4,5,4.3,8,13.8
		c6,18.4,25.3,53.7,42.3,77.6c10.7,15,25.8,32.4,24.3,28c-0.3-0.8-2.1-7.2-4.1-14.3c-7.9-27.9-16.2-45.9-26.1-56.8
		c-6.8-7.4-10.9-14.6-18.1-32.2c-9-22.1-10.8-24.7-28.6-41.6c-5.3-4.9-8.7-12.6-8.7-19.4c0-2.3,1.3-7.6,2.9-11.7
		c4.3-11,4.8-16.4,2.2-24.7c-3.2-10.6-13.8-23.4-26.4-32c-2.7-1.9-4.9-4.3-5.3-5.8C20,58.8,27.8,53,34.1,55.2
		c6.8,2.4,25.5,13,29.1,16.5c3.5,3.5,5.9,8.2,7.2,14.5c1,4.7,6.9,4.8,8.7,0.2c0.5-1.4,0.6-7.9,0.2-14.7C78.8,61.2,79,58.3,80.9,51
		c2.1-8.6,8-22,12.4-28.4c2.4-3.6,15.5-15.4,19.4-17.5C117.8,2.4,123,5,123,10.2c0,1.4-1.1,4.5-2.4,6.9c-2.7,4.8-7.6,25.1-7.6,31.2
		c0,5.6,2.4,9.9,8.2,14.8c9.1,7.7,10.8,15.9,6.1,29.6c-3.4,10-3.5,18-0.3,24.5c1.2,2.6,6.3,9.1,11.2,14.5c5,5.3,10.2,11.4,11.5,13.5
		c2.9,4.4,3.4,4.5,5.7,1.9c2.1-2.3,3.1-10.1,4.1-30.6c1-23.5,3.4-31.4,12.2-39.6c3.4-3.2,6.3-4.9,9.8-5.8c19.6-4.8,21.2-6.6,23-24.6
		c1.3-12.5,3.8-18.8,10.3-25.1c7.7-7.5,19.6-13.4,28.6-14.1c8.2-0.7,8.7,0.1,5.7,10.5c-4.5,16-8.4,23.8-17.5,34.4
		c-16.9,20-28.8,44.5-33.2,68.5c-2.2,12.2-2.9,35.6-1.5,48.3c6.9,59.9,35.3,124.1,83.1,187.9c70.2,93.8,170.5,186,303,278.6
		c45,31.5,76.6,52,144.5,94c24.2,14.9,49.9,30.9,57.2,35.4s16.8,11.5,21.2,15.5c4.4,4,9.1,7.6,10.5,7.8c3.9,0.8,8.4-1.7,10.3-5.7
		c2.2-4.6,1.3-8.8-5.5-25c-6.8-16.5-9.4-27.2-9.3-39.3c0-14.2,1.8-19.3,12.4-36.6c6.7-10.8,4.8-17.7-7.7-28.9
		c-14.5-13.1-27.1-32.9-34-53.9c-4.4-13.2-7.5-27.4-12.6-57.3c-2.3-13.2-5-28-6.1-33c-3.4-14.8-1.4-24.4,6.6-31.4
		c2-1.7,7.7-5.1,12.8-7.5c16.9-7.9,21.4-15.1,22.9-36c1.5-22,4.1-28.8,14.8-39c4.2-4.1,8.7-7,15.2-10.1
		c18.9-8.8,28.5-18.7,35.6-36.5c4.2-10.7,5.6-18.8,5.6-33.5c0-14.9-0.8-20.4-5.4-35.6c-4.5-14.8-6.1-23.3-6.7-36.4
		c-1.2-26.5,4.8-39.9,21.7-48.5c3-1.5,7.3-3.3,9.4-4c3.5-1.1,4.1-1.1,5.3,0.6c2.1,2.9,1.5,8-1.6,14.2c-6.4,12.6-7.5,21.6-4.2,34.4
		c2.1,8.1,7.2,20.1,9.8,23c2.9,3.2,5.9,2.2,12-4.2c3.5-3.7,6.5-6,7.8-6c2.4,0,6,3.4,6.8,6.5c0.3,1.1,1.1,13.7,1.7,28
		c1.5,35.1,4,46.1,13.3,59.2c7.3,10.4,9.1,15.5,9.5,27c0.3,6.8-0.1,13.3-1.3,20c-1.1,6.1-1.9,16.4-2.1,27.3
		c-0.1,10.9-1.3,26.4-3,41.1c-3.1,26.7-2.9,30.6,2.6,39.3c4.7,7.4,12.1,8.4,13.6,1.9c1.7-7.4,5.8-21.1,7.1-23.8
		c2.9-5.9,12.3-13.8,14.1-12c0.4,0.4,0.7,6.8,0.8,14.3c0.1,14.9,1.2,22.1,7.4,47.3c5.3,21.6,6.5,30.2,5,37.2
		c-5,24.5-40.3,66-61.3,72.2c-6.9,2.1-11.3,1.9-16.5-0.6c-4.3-2.2-10.8-10.1-9.6-12c0.3-0.5,4.1-2.7,8.5-5
		c10.5-5.5,12.3-8.1,12.8-18.1c0.4-8.9-1.5-16.5-10.1-41c-5-14.1-5.3-14.7-7-13.1c-5.2,4.7-9.8,19.2-9.8,31c0,2.8-0.5,6.4-1,7.9
		c-1,2.5-1.4,2.6-6,2.2c-11.8-1.2-17-10.7-18.7-34.5c-0.9-13.3,0.8-21.6,9.7-48.3c10.4-31,12.3-40.3,12.3-59c0-8-0.4-16.5-1-19
		l-0.9-4.5l-6.7,13.2c-3.8,7.6-8.2,14.8-10.3,16.8l-3.6,3.7l-10.4-0.7l-10.3-0.7l-3,2.9c-3.5,3.5-4.4,6.6-10,33.3
		c-7.1,34.3-7.5,37.1-7.5,56c0,15.1,0.3,18.7,2.3,26c6.5,24.2,20.8,49.8,35.8,64.1c9.8,9.3,15.9,13.3,31.7,20.9
		c28.1,13.6,40.9,30.3,42.3,55.5c0.9,15.3-1.7,26-11.2,47.3c-2.3,5.2-3.9,10.6-4.2,14.2c-0.5,5.6-0.4,6.1,2.5,8.9
		c4.9,5,9,4.4,16-2.2c3.5-3.3,19.4-13.9,40.7-27.2c138.4-86.3,191.1-121.9,260-175.4c66.3-51.5,117.7-97.9,162.6-146.6
		c51.1-55.6,74.8-85.8,98.4-125.5c34.5-58.2,55-128.2,50.6-173.1c-3.1-32.1-12.6-54.6-34.5-81.4c-3.6-4.4-8.1-11.1-10-15
		c-4.1-8.3-11.7-29.5-11-30.7c0.8-1.2,4.3-1,10.9,0.7c19.1,5,30.3,15.5,35.4,33.1c1.2,4.4,3.1,10.9,4.1,14.5
		c2.5,8.4,5.1,11,14.8,14.4c15.7,5.6,23,13.8,25.8,29.4c0.8,4.2,1.7,15.1,2,24.3c0.6,13.8,1,17.3,2.6,19.8c2.2,3.7,4.3,4.7,6.3,3
		c2.6-2.2,12.4-15.6,16.8-23.2c7.4-12.6,7.7-13.6,6.5-27.7c-1.8-20.5,0.7-29.2,11.6-40.9c8.4-9,8.4-10.7-0.8-28.3
		c-5.7-11.1-6.7-13.7-6.2-16.7c0.6-4.2,3.2-7.2,6.1-7.2c1.4,0,5.8,3.2,11.7,8.6c8.9,8,9.7,9,12.1,15.7c1.4,4,4.1,10.8,6.1,15.3
		c5.3,11.9,6.2,17.6,4.7,29.9c-1.8,15.1,0.6,21.5,8,21.5c2.9,0,4-1.8,6-10.5c2.9-12.5,9.1-17.7,21-17.6c7.5,0,10.9,1.6,10.9,5.1
		c0,3.7-3.4,9.7-8.8,15.5c-3,3.3-6.9,8.8-8.5,12.3c-3.9,8.4-3.6,15.2,1.2,24.4c3.3,6.1,3.3,6.6,2.8,15l-0.6,8.8l-10.5,14
		c-31,41.2-52,79.3-67.7,123.2c-2.1,6-3.9,11.6-3.9,12.4s1,1.4,2.6,1.4c5.4,0,22.3-17.5,34.6-35.9c12-18,20.4-37.2,29.4-67.6
		c2.2-7.4,3.3-9.7,6.8-13.2c4.2-4.2,8.3-6,11.2-4.9c1.3,0.5,1.4,3,0.8,20.5l-0.7,19.9l2.7,1.7c3.7,2.4,7.8,1.4,13.7-3.5
		c6.6-5.6,9.5-12,11.3-25.1c1.5-11,2.9-15.1,6.4-18.2c2.8-2.5,5.4-1.5,9.3,3.4l3.2,4l-1.2,10.7c-2.7,24.8-4.1,45.1-5.1,72.6
		c-0.6,16-1.5,32.1-2.1,35.8c-1.6,10.4-5.8,17.9-14.8,27c-6.9,6.9-9.3,8.5-19.4,13.3c-6.3,3-12.2,6.4-13.1,7.7
		c-3,4.3-1.1,14.4,3.2,16.7c1.2,0.6,5.1,1.1,8.9,1.2c8.1,0,21.9,2.1,23.4,3.6c1.8,1.8-3.3,6.5-11,10c-17.9,8.1-18.2,10.5-3.7,27.8
		c11.6,13.7,14.7,22.8,11.1,32.1c-2.5,6.6-7.4,11.6-16.3,16.8c-12.6,7.2-15.8,12-17.2,24.9c-1,9.7-2.2,13.2-5.8,17
		c-5.6,6-8.3,6.8-30.5,8.8c-13.8,1.3-15.7,2.1-15.7,6.8c0,4.5,3.4,7.7,11.3,10.7c11.2,4.2,20.5,9.1,29.6,15.7
		c7.6,5.4,9.1,6.1,14.2,6.5c7.5,0.6,12.9-1.3,26.9-9.4c6.3-3.5,12-6.2,12.8-5.9c1.2,0.4,1.3,1.8,0.8,6.7
		c-1.6,13.5-7.5,23.2-22.7,36.8c-5.2,4.6-12.1,11.2-15.4,14.6c-3.3,3.3-8.8,7.9-12.2,10.2c-8.5,5.8-10,9-6.8,15.2
		c2.3,4.5,8.5,6.3,22.3,6.4c6.4,0.1,12.4-0.1,13.2-0.4c2.1-0.7,1.5,6-0.8,8.1c-2.8,2.5-35.6,15.9-42.9,17.4c-8.7,1.9-14.2,1.9-24,0
		c-23.8-4.6-52-6.2-78.2-4.6c-34.7,2.3-42.5,4.4-45.6,12.6c-3.4,8.8-0.1,17.8,7.6,20.9c18.1,7.3,48.9,2.6,74.6-11.5
		c8.3-4.5,11.1-4.8,14.1-1.6c4.4,4.7,3.7,6.1-15,27.1c-6.3,7.2-8.9,11.1-14.6,22.9c-3.8,7.8-9,16.8-11.6,19.9
		c-5.7,7-14.5,11.7-23.4,12.5l-6,0.6l0.1,7.7c0.2,6.5-0.2,8.3-1.9,10.7c-3,4.2-7.9,6.1-17.4,6.8c-10.1,0.7-13.2,1.6-22.5,6.3
		c-11.9,5.9-19,8.2-25.7,8.2c-8.2,0-13.6-1.7-15.3-4.9c-3.5-6.8-10.2-10.5-26-14.5c-15.5-3.9-25.6-5-44-4.9c-17.7,0-33.3,2-49.7,6.2
		c-19.6,5.1-27.4,14-27.2,31.3c0.1,4.6,0.8,8,2.4,11.2c4.2,8.8,11.1,9.8,23.8,3.6c4.5-2.1,10.5-4.6,13.4-5.5
		c11.7-3.4,24.5-0.8,37.5,7.7c8.7,5.8,9.5,6.2,19.7,9.9c7.9,2.8,18.1,9.1,21.4,13.1c2.2,2.7-0.3,3.1-7.6,1.2
		c-10-2.6-27.4-2.4-37.6,0.4c-14.4,4.1-28.5,12.3-49.3,28.4c-10.6,8.4-13.3,11.5-17.9,21.3c-6.1,12.5-18.9,22.8-32,25.5
		c-5.4,1.1-33.3,0.8-47-0.6c-8-0.7-11.4,1-22.8,11.5c-4.7,4.4-9.5,8.3-10.7,8.6c-1.9,0.6-2.1,1.3-1.7,6.1c0.8,9.9,5.3,11.9,18.8,8.3
		c6.3-1.7,11.5-2.3,20-2.3c17.8-0.1,24.3,2.9,33.6,16c10.2,14.2,5.7,23.4-11.3,23.4c-8.3,0-13.4,1.3-15.9,4.1
		c-1.6,1.8-1.9,3.7-1.9,13.9c0,11.5-0.1,11.9-3,16.2c-3.7,5.2-9.1,8.4-16.5,9.8c-20.2,3.7-27.2,8-41,25
		c-22.2,27.4-36.3,32.4-59.8,21.3c-4-1.9-11-6.3-15.6-9.7c-4.5-3.5-9.2-6.8-10.3-7.5c-5.2-2.7-9.1-0.1-11.8,7.9
		c-2.6,7.8-4.1,8.6-13.8,7.2c-9.9-1.4-16.7-1.5-20-0.3c-1.3,0.5-5.5,4-9.4,7.8c-8.6,8.6-14.5,11.6-23.6,12.1
		c-8.8,0.5-14.6-1.4-26.7-8.8c-17.3-10.6-26.5-13.6-39.6-12.8c-9.3,0.6-17.2,3.2-26.9,9c-18.5,10.9-22.2,12.8-30.8,15.6
		c-5.1,1.7-13.3,3.8-18.1,4.7C892.1,1101.1,874.3,1101.3,864.6,1099.9z M886.8,861.3c4.6-14.3,6.6-22.9,11.7-50.8
		c2.6-13.7,5.5-28.6,6.6-33c3.4-14.4,2.4-18.7-5.8-24.4c-2.6-1.9-6.9-5.4-9.5-7.8c-6.8-6.2-10.6-5.8-17.3,1.6
		c-1.9,2.1-5.2,5-7.3,6.4c-4.9,3.5-7.4,7.8-7.3,13c0,2.3,1.8,11.9,4,21.2c2.2,9.4,6.8,32,10.3,50.3l6.3,33.2h2.6
		C883.5,871,883.9,870.3,886.8,861.3z"/>
</g>
</svg>
