<svg xmlns="http://www.w3.org/2000/svg" version="1" width="286" height="248" viewBox="-0.6 -2.4 286.35 247.9"><path fill="#0d131a" d="M279 83q-4 20-9 35-5 16-8 17l-13-10-11-10-17 15-27 21q-12 10-28 7-13-1-30-11l-29-17q-16-10-24-12-14-4-24-1-13 4-18 14l-3 13q0 8 4 15 9 18 40 24 21 5 47-9 14-7 23-15 1 8-6 15-6 7-18 12-12 4-26 5-15 2-30-2-30-8-40-27-8-16 1-35 6-11 19-16 13-6 26-3t29 12l26 16q14 9 24 12 13 4 24 0 11-3 23-22t22-52q4-11 6-11l3 8 6 22q5-5 23-35 17-27 19-27 3 0 1 16-1 15-5 36"/><path fill="#543823" d="M173 156q-11 1-29-7-14-7-30-18-13-9-24-13l-18-5q-9-1-19 4-13 6-17 20-3 16 7 29 11 14 36 18 21 4 42-4 11-4 24-13l3-1q1 3-5 8-7 5-17 9-27 10-51 4-25-6-37-21-10-14-5-30 4-14 17-21 11-7 22-5 20 3 43 18l29 18q17 8 29 6l7-1 3 1q2 1 1 2l-5 2h-6"/><path fill="#f2e100" d="M248 90l9-15 14-22q9-16 10-15 2 0-1 21-2 19-5 30l-7 25q-5 18-7 18l-12-10-12-11-22 21q-20 17-29 21l-3 2h-2v-1-1h-1 1v-1h-1v-1l4-1q8-4 17-17 8-11 15-25 6-12 11-27l4-11q1-1 4 13 4 14 6 14t7-7"/><path fill="#0d131a" d="M84 43l-9 3q-11 6-19 13L44 71l-2 2-2 5 1 4q2 2 5 2l2-1 2-3-1-3-2-1q-2-1-2 1v2q2 1 1 2 0 2-2 0t-2-5q1-3 5-3 2 0 4 3 2 2 1 5l-1 3-3 2h-4l-2-1q-4-1-4-6v-7l-1-11q-1-6-4-7-7-3-17-1-7 3-12 8H1q-2-1-1-2 21-26 41-37 16-9 31-7 7 0 13 4 8 6 12 15 2 3 0 4l-5 3-8 2"/><path fill="#776b59" d="M86 40q-23-13-49-4-18 6-31 20-3 4-4 3l3-4q12-13 21-20 10-8 24-14 8-5 20-4 16 1 23 15 3 5 1 8t-8 0"/><path fill="#0d131a" d="M251 21q2 0 1 2t-3 1q-7-3-14-3-10 0-15 6-3 2-2 8l3 11 1 3 1 4q1 4-1 7l-2 2-4 1-3-1-3-2v-6l3-4q2-1 4 1l2 4h-1l-1-1q1-1-1-2l-3 1-1 2v3l3 2h2q3 0 4-3v-5l-3-3-3-2-16-7-22-5h-9l-9 1-5-1q-2-1-2-4 1-10 8-19 5-6 9-8 14-6 35-3 22 4 47 20"/><path fill="#776b59" d="M246 19l4 3-5-2q-9-4-24-7-19-4-34-1l-7 3q-5 3-6 6v7l2 4-11 1q-11-1-10-5 2-16 17-22 10-5 20-4 15 2 27 6 11 3 27 11"/><path fill="#f2e100" d="M47 43h14l12 2h1l-6 2-16 13-12 12v-6l-1-9q-2-5-9-7h-6q15-6 23-7"/><path fill="#cbbd00" d="M45 36q8-2 14-1 9 0 17 3l3 2v2l-1 2-4 1h-1l-12-2H47q-8 1-23 7-5 0-11 3l-4 2 13-9q15-9 23-10"/><path fill="#0d131a" d="M164 23q8 7 13 17 6 13 6 27v13l1 9q1 9 8 20 12 17 16 32 5 19-1 35l-6 11-9 10 6 4 16 13q12 11 10 22-1 4-5 7-3 3-8 2-3 0-22-15l-19-18-3-6-1-4q-8 3-20 3t-23-3v5l-2 4-56 18q-7 3-10-1-2-4-1-12 2-10 19-15l12-3 4-2q-9-9-15-26-5-15-5-24l3-14 4-14q5-17 2-26-6-13-6-25t5-24q4-11 14-19 11-9 23-12 14-3 28 1 13 3 22 10"/><path fill="#d7a400" d="M183 180l8-8q-9 16-17 22-12 9-31 9-22-1-39-15-9-8-16-18l7 8 8 7 6 4 5 2 8 4 11 2h15l16-4q7-3 19-13"/><path fill="#f9be00" d="M91 203q2 2 2 8l1 7h-2q-7-1-11-5t-4-7l1-4 10-3 3 4"/><path fill="#d7a400" d="M83 180q3 0 4-2l2-2q4 6 10 11 8 8 20 13 2 0 2 4t-2 5l-25 9-1-7q0-6-2-8l-3-4 3-1 6 3q6 3 7 2l-3-2-8-5q-7-4-13-17l3 1"/><path fill="#f9be00" d="M181 80q0 14 5 23l8 13 8 18q9 22 2 42l-5 2h-4l-3-2 2-4v-4l-2 3-1 1-8 8q-12 10-19 13l-16 4h-15l-11-2-8-4-5-2-6-4-8-7-7-8-1-1v-1l1 5 1 3-2 2q-1 2-4 2l-3-1-6-18-2-15 3-12 4-15q5-18 1-28-9-22-2-45 4-12 15-21t24-11q24-4 42 8 17 12 21 33l1 13v12M193 201l5 4 2 2q2 4-6 8l-7 2h-8l-4-3 4-6q3-4 8-6 3-2 6-1"/><path fill="#d7a400" d="M183 188l9-12 3 2h4l5-2-3 5q-2 5-6 9l-10 8-3 2h3l4-1h1l3 2q-3-1-6 1-5 2-8 6l-4 6-3-2-3-6v-6q8-5 14-12"/><path fill="#0d131a" d="M103 37l-1 5q-2 2-5 2t-5-2q-2-2-2-5l2-4q2-2 5-2t5 2l1 4M153 32l-2 4q-2 2-5 2l-4-2-2-4q0-3 2-5l4-2q3 0 5 2t2 5"/><path fill="#fff" d="M100 34l-1 1-1 1-2-1v-1-1l2-1 1 1 1 1M150 29l-1 1-1 1-1-1-1-1 1-2h2l1 2"/><path fill="#0d131a" d="M97 64q-1 5-5 8-5 2-9 1t-5-6q-2-4-1-9 2-5 6-8t8-2q4 2 6 6 2 5 0 10M175 48q2 6-1 11-2 4-7 6-5 1-9-2-5-3-7-8-1-6 1-10 3-5 7-7 5-1 10 2t6 8"/><path fill="#f2e100" d="M96 63q-2 5-5 7-4 3-7 2-4-1-5-5-2-4 0-9 1-4 5-7 3-2 7-1 3 1 5 5v8M174 49q1 5-1 9t-6 6q-4 1-8-2t-6-7q-1-5 1-10 2-4 6-5t8 1q4 3 6 8"/><path fill="#fff" d="M176 173q-10 16-33 18-20 3-36-14-7-7-12-16-4-9-5-17-4-26 6-44 10-20 32-21 21-1 35 15t18 44q3 21-5 35"/><path fill="#776b59" d="M78 202l-1 4q0 3 4 7t11 5l-25 9h-8q-2 0-2-3l2-2 6-4 5-1 2-1q-1-2-3-1l-6 1-5 3-2 2 1-4 2-2 4-2 5-1 3-2h-3l-5 1-5 2q1-3 7-6 5-3 13-5M219 224l2 4v3l-1-1-3-4-3-2 2 2 3 5q2 3 1 5 0 4-4 6v-3q-1-4-3-5l-3-4h-3l2 2 3 3 1 5v3q-3 0-5-2l-12-9-17-15h8l7-2q8-4 6-8l-2-2q16 12 21 19"/><path fill="#f2e100" d="M207 22l11 3q-3 4-3 8l2 9 2 5q-6-4-15-7-12-5-20-6l-2-1q-3-4-1-8 3-3 7-3 9-2 19 0"/><path fill="#cbbd00" d="M242 20l-7-1q-7 0-14 4l-3 2-11-3q-10-2-19 0-4 0-7 3-2 4 1 8-4-1-5-4l-1-5 1-4q1-2 5-3 7-4 20-4 9 0 25 3l15 4"/><path fill="#0d131a" d="M80 127l2 2 5-3q5-4 11-6 3-1 1-7l-3-9q-2-3-1-5l2 1 6 10 7 15 5 10 4 9q2 7-4 11-5 4-13-1-9-5-18-16l-4-8v-3"/><path fill="#f9be00" d="M102 113l5 10 2 6h-2l-1 1v4l1 3h-2l-2-1-1 1-1 2h-2-4l-1 2v2l-1-2q-6-5-9-10l-1-1-2-2q-2-6-1-15l2-11q1-5 5-5 7 1 11 8l4 8"/><path fill="#d7a400" d="M84 131q3 5 9 10l1 2-1 1q-4-3-7-8l-5-8 2 2 1 1"/><path fill="#776b59" d="M99 146l-5-3v-2l1-2h6l1-2 1-1 2 1h2l-1-3v-4l1-1h2l8 13q2 6-1 10l-3 1-5-2q-4-1-9-5"/><path fill="#594f41" d="M93 144l1-1 5 3q5 4 9 5l5 2 3-1-2 2q-3 2-9-1-6-2-12-9"/><path fill="#0d131a" d="M165 96q1-2 2-1v3l-1 9 1 8 11 5q10 3 9-2l1-7q1-2 2 1v9l-1 7q-3 13-11 21-7 7-12 5l-6-3q-2-2-1-6l1-9 1-12 2-17 2-11"/><path fill="#f9be00" d="M170 92q3 0 9 6l6 7q3 0 4 6h-1l-4 14-3 6-3 5h-2-1l-1-1-1-3-3-2h-8l1-6 3-22q2-9 4-10"/><path fill="#d7a400" d="M189 111l-1 8-1 9-4 10-1-3h-2l-2 1 3-5 3-6 4-14h1"/><path fill="#776b59" d="M162 130h8l3 2 1 3 1 1h3l-8 12-4 3-1 1q-5-2-5-7l2-15"/><path fill="#594f41" d="M170 148l8-12 2-1h2l1 3-9 12q-5 3-8 2h-1l1-1 4-3"/><path fill="#0d131a" d="M80 127l2 2 5-3q5-4 11-6 3-1 1-7l-3-9-2-5q1-1 3 1 3 3 6 11l7 15q8 14 9 19 2 7-3 10-5 4-14-1t-18-16l-4-8v-3"/><path fill="#f9be00" d="M102 113l5 10 2 6h-2l-1 1v4l1 3h-2l-2-1-1 1-1 2h-2-4l-1 2v2l-1-2q-6-5-9-10l-1-1-2-2q-2-6-1-15l2-11q1-5 5-5 7 1 11 8l4 8"/><path fill="#d7a400" d="M84 131q3 5 9 10l1 2-1 1q-4-3-7-8l-5-8 2 2 1 1"/><path fill="#776b59" d="M99 146l-5-3v-2l1-2h6l1-2 1-1 2 1h2l-1-3v-4l1-1h2l8 13q2 6-1 10l-3 1-5-2q-4-1-9-5"/><path fill="#594f41" d="M93 144l1-1 5 3q5 4 9 5l5 2 3-1-2 2q-3 2-9-1-6-2-12-9"/><path fill="#0d131a" d="M165 96q1-3 2-2v4l-1 9 1 8 11 5q10 3 9-2l1-7q1-2 2 1v9l-2 7q-3 13-10 21-7 7-12 5-8-2-8-9l1-9 2-12 2-17 2-11"/><path fill="#f9be00" d="M170 92q3 0 9 6l6 7q3 0 4 6h-1l-4 14-3 6-3 5h-2-1l-1-1-1-3-3-2h-8l1-6 3-22q2-9 4-10"/><path fill="#d7a400" d="M189 111l-1 8-1 9-4 10-1-3h-2l-2 1 3-5 3-6 4-14h1"/><path fill="#776b59" d="M162 130h8l3 2 1 3 1 1h3l-8 12-4 3-1 1q-5-2-5-7l2-15"/><path fill="#594f41" d="M170 148l8-12 2-1h2l1 3-9 12q-5 3-8 2h-1l1-1 4-3"/><path fill="#0d131a" d="M124 42l-1 1-2 1-3-1v-2l2-1 3 1 1 1M130 49l4 1q1 5-1 13-3 7-6 8-5 1-10-6l-6-13 4-2 8-2q2-1 7 1"/><path fill="#b50005" d="M118 62l-5-11 3-1 6-2 10 2q1 4-1 9l-7-1q-4 1-6 4"/><path fill="#e50012" d="M124 58l7 1-1 6-3 4q-4 1-9-7 2-3 6-4"/><path fill="#0d131a" d="M128 49l-6-1-6 2-5 3-4-1-1-3v-1-1h1v1q2 3 5 3l4-3 6-2 6 1 6 2 4-1v-3-2l2 2q1 2-1 4l-5 1-6-1M118 63l-1-1q3-4 7-5l9 2v1l-1 1q-3-2-8-2-4 1-6 4"/></svg>